<?xml version="1.0" encoding="UTF-8" standalone="no"?>
<svg
   width="24"
   height="24"
   viewBox="0 0 24 24"
   version="1.1"
   id="svg44"
   sodipodi:docname="evil_github.svg"
   inkscape:version="1.2 (dc2aeda, 2022-05-15)"
   inkscape:export-filename="evil_github.png"
   inkscape:export-xdpi="96"
   inkscape:export-ydpi="96"
   xmlns:inkscape="http://www.inkscape.org/namespaces/inkscape"
   xmlns:sodipodi="http://sodipodi.sourceforge.net/DTD/sodipodi-0.dtd"
   xmlns:xlink="http://www.w3.org/1999/xlink"
   xmlns="http://www.w3.org/2000/svg"
   xmlns:svg="http://www.w3.org/2000/svg">
  <defs
     id="defs48">
    <linearGradient
       inkscape:collect="always"
       id="linearGradient1118">
      <stop
         style="stop-color:#d40000;stop-opacity:1;"
         offset="0"
         id="stop1114" />
      <stop
         style="stop-color:#d40000;stop-opacity:0;"
         offset="1"
         id="stop1116" />
    </linearGradient>
    <linearGradient
       inkscape:collect="always"
       xlink:href="#linearGradient1118"
       id="linearGradient1120"
       x1="5.5005398"
       y1="2.2974803"
       x2="20.021364"
       y2="18.313259"
       gradientUnits="userSpaceOnUse" />
  </defs>
  <sodipodi:namedview
     id="namedview46"
     pagecolor="#ffffff"
     bordercolor="#000000"
     borderopacity="0.25"
     inkscape:showpageshadow="2"
     inkscape:pageopacity="0.0"
     inkscape:pagecheckerboard="0"
     inkscape:deskcolor="#d1d1d1"
     showgrid="false"
     inkscape:zoom="60.541667"
     inkscape:cx="8.952512"
     inkscape:cy="8.4569855"
     inkscape:window-width="1920"
     inkscape:window-height="984"
     inkscape:window-x="0"
     inkscape:window-y="48"
     inkscape:window-maximized="1"
     inkscape:current-layer="svg44" />
  <path
     d="M12 0c-6.626 0-12 5.373-12 12 0 5.302 3.438 9.8 8.207 11.387.599.111.793-.261.793-.577v-2.234c-3.338.726-4.033-1.416-4.033-1.416-.546-1.387-1.333-1.756-1.333-1.756-1.089-.745.083-.729.083-.729 1.205.084 1.839 1.237 1.839 1.237 1.07 1.834 2.807 1.304 3.492.997.107-.775.418-1.305.762-1.604-2.665-.305-5.467-1.334-5.467-5.931 0-1.311.469-2.381 1.236-3.221-.124-.303-.535-1.524.117-3.176 0 0 1.008-.322 3.301 1.23.957-.266 1.983-.399 3.003-.404 1.02.005 2.047.138 3.006.404 2.291-1.552 3.297-1.23 3.297-1.23.653 1.653.242 2.874.118 3.176.77.84 1.235 1.911 1.235 3.221 0 4.609-2.807 5.624-5.479 5.921.43.372.823 1.102.823 2.222v3.293c0 .319.192.694.801.576 4.765-1.589 8.199-6.086 8.199-11.386 0-6.627-5.373-12-12-12z"
     id="path42" />
  <path
     style="fill:url(#linearGradient1120);stroke-width:0.0282353;fill-opacity:1"
     d="m 15.448591,23.374806 c -0.145507,-0.02641 -0.295049,-0.132683 -0.363915,-0.258618 -0.04525,-0.08274 -0.05079,-0.259363 -0.06618,-2.109129 -0.01614,-1.940382 -0.0192,-2.029589 -0.07859,-2.295881 -0.120633,-0.540898 -0.313131,-0.956463 -0.581133,-1.254545 l -0.12919,-0.143691 0.07815,-0.0154 c 0.04298,-0.0085 0.141677,-0.0232 0.219324,-0.03274 1.692294,-0.207813 3.078347,-0.838143 3.872793,-1.761217 0.794756,-0.923434 1.18645,-2.095401 1.265335,-3.785938 0.06073,-1.301519 -0.297501,-2.4432143 -1.05907,-3.3752606 l -0.162429,-0.19879 0.06526,-0.2001721 c 0.03589,-0.1100948 0.08689,-0.3295468 0.113331,-0.4876713 0.06624,-0.3961346 0.04601,-1.1926207 -0.04055,-1.5969295 C 18.503467,5.4933267 18.357048,5.0340161 18.300882,4.977851 18.264422,4.941388 18.203122,4.93625 17.944891,4.948014 17.253104,4.979529 16.39851,5.3128891 15.369559,5.9525998 L 14.99793,6.1836424 14.706024,6.1138856 C 13.302064,5.7783815 11.839175,5.7068651 10.418824,5.9042968 9.9996353,5.9625648 9.456386,6.0677441 9.1722155,6.1456543 L 9.0126664,6.1893976 8.6273774,5.9480377 C 7.622836,5.3187544 6.7715684,4.9867169 6.0694289,4.9503083 5.794093,4.9360312 5.7366136,4.940361 5.6987424,4.9782325 5.64336,5.0336146 5.4974022,5.4856193 5.4189473,5.8447059 c -0.042208,0.1931856 -0.06296,0.4155018 -0.07417,0.7945813 -0.017113,0.5786984 0.021131,0.9202605 0.1458876,1.3029405 L 5.5555321,8.1412032 5.3848069,8.3553075 C 4.4791624,9.4910637 4.1923494,10.685253 4.3941637,12.48 c 0.3208915,2.853704 1.9463517,4.379367 5.1157852,4.801693 l 0.2628901,0.03503 -0.1133196,0.115756 c -0.2531435,0.258587 -0.4838109,0.757626 -0.6016472,1.301639 l -0.036696,0.169411 -0.1685822,0.06674 c -0.4099056,0.162267 -0.677131,0.211549 -1.1584767,0.213647 -0.3983601,0.0017 -0.4766544,-0.0058 -0.6623133,-0.06415 -0.6177902,-0.194 -1.0116968,-0.522038 -1.4632783,-1.21859 -0.4942277,-0.762332 -1.1871975,-1.22019 -1.8555845,-1.226019 -0.3766066,-0.0033 -0.5505883,0.07287 -0.5505883,0.241011 0,0.114892 0.1955396,0.319239 0.5034531,0.526128 0.47208,0.317195 0.8337758,0.766267 1.1373298,1.412081 0.2794546,0.594542 0.3011802,0.634425 0.4574434,0.839741 0.3899263,0.512329 1.0188847,0.864011 1.7697716,0.989568 0.2370409,0.03964 0.3937236,0.0454 0.858057,0.03155 0.3124346,-0.0093 0.6633569,-0.03574 0.7798275,-0.05872 0.1164706,-0.02298 0.234,-0.04245 0.2611765,-0.04327 0.04629,-0.0014 0.049412,0.07261 0.049412,1.171186 0,0.991423 -0.00671,1.188737 -0.04343,1.276614 -0.091663,0.21938 -0.2565357,0.317774 -0.5324776,0.317774 -0.1457819,0 -0.2505814,-0.02491 -0.5168126,-0.122814 C 4.1504126,21.882176 1.3158522,18.725921 0.36947418,14.886317 0.12919647,13.911472 0.02741458,13.057155 0.02686759,12.010609 0.02650762,11.321902 0.04940492,10.952951 0.12915908,10.362353 0.73404463,5.883039 3.8955337,2.0736572 8.2023529,0.63469753 9.5944207,0.16959109 10.990191,-0.02519505 12.515294,0.03280679 c 4.600929,0.17497986 8.728485,3.04924131 10.539221,7.33908401 0.888315,2.1045208 1.148145,4.5249562 0.730208,6.8022272 -0.584761,3.186266 -2.453944,6.011695 -5.163547,7.805138 -0.864895,0.572461 -1.602734,0.948064 -2.512941,1.279235 -0.345842,0.125832 -0.478415,0.149208 -0.659644,0.116315 z"
     id="path223" />
  <path
     style="fill:#d40000"
     d="M 8.336755,8.2104579 10.248607,9.9995081 10.631865,9.7026989 8.6508967,8.0560375 Z"
     id="path756" />
  <path
     style="fill:#d40000"
     d="M 15.570908,8.3073839 13.659056,10.096435 13.275798,9.7996255 15.256766,8.1529635 Z"
     id="path816" />
  <path
     style="fill:#280b0b"
     d="M 8.6860184,9.0701032 C 8.5463016,11.068481 8.5063045,11.068252 8.5063045,11.068252 l 0.3980687,-0.0397 0.05494,-1.6834551 z"
     id="path818" />
  <path
     style="fill:#280b0b"
     d="m 15.108887,9.2338728 c 0.139716,1.9983772 0.179714,1.9981482 0.179714,1.9981482 l -0.398069,-0.0397 -0.05494,-1.6834545 z"
     id="path820" />
</svg>
